<?xml version="1.0" standalone="no"?>
<!DOCTYPE svg PUBLIC "-//W3C//DTD SVG 20010904//EN"
 "http://www.w3.org/TR/2001/REC-SVG-20010904/DTD/svg10.dtd">
<svg version="1.0" xmlns="http://www.w3.org/2000/svg"
 width="726.000000pt" height="726.000000pt" viewBox="0 0 726.000000 726.000000"
 preserveAspectRatio="xMidYMid meet">
<metadata>
Created by potrace 1.11, written by Peter Selinger 2001-2013
</metadata>
<g transform="translate(0.000000,726.000000) scale(0.100000,-0.100000)"
fill="#000000" stroke="none">
<path d="M5907 7224 c-1 -2 -59 -6 -127 -9 -69 -3 -159 -7 -200 -10 -116 -6
-287 -15 -375 -20 -44 -2 -123 -7 -175 -9 -52 -3 -144 -8 -205 -11 -60 -3
-148 -8 -195 -10 -47 -3 -128 -7 -180 -10 -52 -2 -138 -7 -190 -10 -52 -3
-133 -7 -180 -10 -47 -3 -134 -7 -195 -10 -60 -3 -141 -7 -180 -10 -38 -2
-128 -7 -200 -10 -71 -3 -157 -8 -190 -10 -33 -2 -118 -7 -190 -11 -71 -3
-152 -8 -180 -9 -27 -2 -108 -6 -180 -9 -71 -4 -161 -9 -200 -11 -38 -2 -122
-7 -185 -10 -272 -13 -292 -14 -570 -30 -149 -8 -326 -17 -565 -29 -60 -3
-148 -8 -195 -11 -47 -3 -132 -7 -190 -10 -309 -16 -337 -20 -440 -62 -210
-86 -357 -262 -407 -485 -12 -57 -7 -316 12 -613 2 -33 6 -118 10 -190 3 -71
7 -155 10 -185 3 -30 7 -118 11 -195 3 -77 7 -161 9 -187 3 -52 16 -291 20
-383 3 -69 14 -278 20 -380 2 -38 7 -122 10 -185 7 -145 13 -260 20 -375 3
-49 7 -142 11 -205 3 -63 7 -146 9 -185 3 -38 7 -124 10 -190 3 -66 7 -147 10
-180 2 -33 7 -116 10 -185 4 -69 8 -161 11 -205 2 -44 6 -125 9 -180 3 -55 8
-136 10 -180 4 -78 13 -237 20 -380 6 -117 15 -296 20 -380 5 -95 13 -254 20
-385 14 -285 18 -319 42 -389 65 -194 175 -319 365 -413 31 -15 63 -28 71 -28
7 0 44 -24 81 -54 80 -64 147 -98 247 -126 66 -18 92 -20 234 -15 88 3 185 8
215 10 30 2 111 7 180 10 140 7 224 11 385 20 119 7 187 11 365 20 63 3 151 7
195 10 44 2 130 7 190 10 61 3 146 8 190 10 103 6 266 15 380 20 186 9 312 16
370 20 33 2 116 7 185 10 69 3 157 8 195 10 39 2 122 7 185 10 63 3 149 8 190
10 41 2 131 7 200 10 69 4 152 8 185 10 33 2 119 6 190 10 72 4 157 8 190 10
33 2 116 7 185 10 69 4 150 8 180 10 30 2 118 6 195 10 77 4 165 8 195 10 30
2 116 6 190 10 74 3 160 8 190 10 30 3 107 7 171 10 132 6 131 6 219 34 215
69 378 259 420 491 12 67 10 141 -15 580 -7 127 -13 239 -21 390 -3 69 -8 157
-10 195 -2 39 -6 115 -9 170 -3 55 -7 138 -9 185 -3 47 -7 137 -11 200 -3 63
-8 153 -11 200 -3 47 -7 123 -9 170 -13 255 -16 322 -21 392 -2 43 -6 124 -9
180 -2 57 -7 137 -9 178 -3 41 -8 129 -11 195 -3 66 -7 156 -10 200 -3 44 -7
127 -10 185 -3 58 -7 139 -10 180 -2 41 -6 129 -10 195 -3 66 -8 152 -10 190
-3 39 -7 122 -10 185 -3 63 -8 151 -10 195 -2 44 -7 125 -10 180 -8 137 -15
272 -20 385 -2 52 -6 138 -9 190 -6 96 -13 219 -22 385 -5 108 -34 218 -77
299 -38 71 -127 169 -196 217 -27 19 -60 52 -74 74 -85 133 -242 240 -412 281
-29 7 -302 14 -308 8z"/>
</g>
</svg>
